<svg class="btn-icon" width="32" height="33" viewBox="0 0 32 33" fill="none" xmlns="http://www.w3.org/2000/svg">
<rect y="0.5" width="32" height="32" rx="8" fill="#B87F4D"/>
<path d="M18.6641 16.5002V21.0335C18.6641 21.7802 18.6641 22.1533 18.8094 22.4386C18.9372 22.6894 19.141 22.8938 19.3919 23.0216C19.6769 23.1668 20.0501 23.1668 20.7953 23.1668H23.1995C23.9447 23.1668 24.3174 23.1668 24.6023 23.0216C24.8532 22.8938 25.0577 22.6893 25.1855 22.4384C25.3307 22.1535 25.3307 21.7808 25.3307 21.0356V18.6314C25.3307 17.8862 25.3307 17.513 25.1855 17.228C25.0577 16.9771 24.8533 16.7733 24.6025 16.6455C24.3172 16.5002 23.9441 16.5002 23.1974 16.5002H18.6641ZM18.6641 16.5002V13.8335C18.6641 11.6244 20.4549 9.8335 22.6641 9.8335M6.66406 16.5002V21.0335C6.66406 21.7802 6.66406 22.1533 6.80939 22.4386C6.93722 22.6894 7.14104 22.8938 7.39193 23.0216C7.67686 23.1668 8.05006 23.1668 8.79533 23.1668H11.1995C11.9447 23.1668 12.3174 23.1668 12.6023 23.0216C12.8532 22.8938 13.0577 22.6893 13.1855 22.4384C13.3307 22.1535 13.3307 21.7808 13.3307 21.0356V18.6314C13.3307 17.8862 13.3307 17.513 13.1855 17.228C13.0577 16.9771 12.8533 16.7733 12.6025 16.6455C12.3172 16.5002 11.9441 16.5002 11.1974 16.5002H6.66406ZM6.66406 16.5002V13.8335C6.66406 11.6244 8.45492 9.8335 10.6641 9.8335" stroke="white" stroke-width="2.66667" stroke-linecap="round" stroke-linejoin="round"/>
</svg>
