<svg class="btn-icon" width="21" height="20" viewBox="0 0 21 20" fill="none" xmlns="http://www.w3.org/2000/svg">
<mask id="mask0_0_1" style="mask-type:luminance" maskUnits="userSpaceOnUse" x="0" y="0" width="21" height="20">
<path d="M15.6515 0H5.34848C2.67074 0 0.5 2.17074 0.5 4.84848V15.1515C0.5 17.8293 2.67074 20 5.34848 20H15.6515C18.3293 20 20.5 17.8293 20.5 15.1515V4.84848C20.5 2.17074 18.3293 0 15.6515 0Z" fill="white"/>
</mask>
<g mask="url(#mask0_0_1)">
<path d="M20.5 0H0.5V20H20.5V0Z" fill="white"/>
<path d="M12.8534 9.54341H6.94465V7.20526H12.8534C13.1985 7.20526 13.4385 7.26542 13.5589 7.37047C13.6794 7.47553 13.754 7.67038 13.754 7.95502V8.79456C13.754 9.09446 13.6794 9.2893 13.5589 9.39436C13.4385 9.49941 13.1985 9.54341 12.8534 9.54341ZM13.2587 5.00089H4.4388V15H6.94465V11.7469H11.5627L13.754 15H16.56L14.144 11.7316C15.0348 11.5996 15.4347 11.3267 15.7646 10.8768C16.0944 10.427 16.2599 9.70773 16.2599 8.74786V7.99812C16.2599 7.42883 16.1996 6.97899 16.0944 6.6342C15.9893 6.28939 15.8096 5.9895 15.5543 5.72012C15.2846 5.46512 14.9844 5.28553 14.624 5.16521C14.2636 5.06017 13.8133 5.00089 13.2587 5.00089Z" fill="#342615"/>
</g>
</svg>
