<svg width="21" height="20" viewBox="0 0 21 20" fill="none" xmlns="http://www.w3.org/2000/svg">
<path d="M20.5 10C20.5 15.5228 16.0228 20 10.5 20C4.97715 20 0.5 15.5228 0.5 10C0.5 4.47715 4.97715 0 10.5 0C16.0228 0 20.5 4.47715 20.5 10Z" fill="white"/>
<path d="M15.4893 5.86342C15.5783 5.28808 15.0313 4.83397 14.5198 5.05857L4.3309 9.53203C3.96405 9.6931 3.99088 10.2488 4.37136 10.3699L6.47256 11.0391C6.87359 11.1668 7.30783 11.1007 7.65802 10.8588L12.3953 7.58591C12.5381 7.48721 12.6939 7.69033 12.5718 7.81616L9.16182 11.3319C8.83103 11.6729 8.89669 12.2508 9.29458 12.5003L13.1124 14.8945C13.5406 15.163 14.0915 14.8933 14.1716 14.3758L15.4893 5.86342Z" fill="#0B0703"/>
</svg>
