<svg class="btn-icon" width="21" height="20" viewBox="0 0 21 20" fill="none" xmlns="http://www.w3.org/2000/svg">
<path d="M0.5 9.58333C0.5 5.06571 0.5 2.80689 1.90345 1.40345C3.30689 0 5.56571 0 10.0833 0H10.9167C15.4343 0 17.6931 0 19.0965 1.40345C20.5 2.80689 20.5 5.06571 20.5 9.58333V10.4167C20.5 14.9343 20.5 17.1931 19.0965 18.5965C17.6931 20 15.4343 20 10.9167 20H10.0833C5.56571 20 3.30689 20 1.90345 18.5965C0.5 17.1931 0.5 14.9343 0.5 10.4167V9.58333Z" fill="white"/>
<path fill-rule="evenodd" clip-rule="evenodd" d="M5.55673 6H4.02513C3.58753 6 3.5 6.19823 3.5 6.41676C3.5 6.80712 4.01925 8.74307 5.91771 11.3035C7.18335 13.0521 8.96651 14 10.5892 14C11.5627 14 11.6832 13.7895 11.6832 13.4269V12.1053C11.6832 11.6842 11.7754 11.6002 12.0837 11.6002C12.3109 11.6002 12.7003 11.7095 13.609 12.5525C14.6474 13.5517 14.8186 14 15.4027 14H16.9343C17.372 14 17.5908 13.7895 17.4646 13.374C17.3264 12.96 16.8306 12.3592 16.1727 11.647C15.8157 11.2411 15.2802 10.804 15.118 10.5853C14.8908 10.3043 14.9557 10.1794 15.118 9.92964C15.118 9.92964 16.984 7.40038 17.1787 6.54173C17.2761 6.22943 17.1787 6 16.7156 6H15.184C14.7945 6 14.615 6.19823 14.5176 6.41676C14.5176 6.41676 13.7388 8.24345 12.6354 9.43002C12.2784 9.77347 12.1161 9.88278 11.9214 9.88278C11.824 9.88278 11.6831 9.77347 11.6831 9.46126V6.54173C11.6831 6.16699 11.5701 6 11.2455 6H8.83872C8.59538 6 8.449 6.17389 8.449 6.33874C8.449 6.69394 9.00068 6.77587 9.05756 7.77507V9.94526C9.05756 10.4211 8.96822 10.5073 8.77353 10.5073C8.25431 10.5073 6.99129 8.67246 6.2422 6.57293C6.09542 6.16484 5.94816 6 5.55673 6Z" fill="#0B0703"/>
</svg>
