<svg class="btn-icon" width="19" height="18" viewBox="0 0 19 18" fill="none" xmlns="http://www.w3.org/2000/svg">
<path d="M0.539062 17.9088L1.79849 13.3103C1.02172 11.9646 0.613049 10.4379 0.613547 8.87384C0.615538 3.98078 4.59749 0 9.49072 0C11.8653 0.00115824 14.094 0.925242 15.7702 2.60265C17.446 4.28005 18.3687 6.50961 18.3679 8.88099C18.3657 13.7737 14.3831 17.7552 9.49072 17.7552C9.49108 17.7552 9.49035 17.7552 9.49072 17.7552H9.48689C8.00135 17.7546 6.54158 17.3819 5.24491 16.6748L0.539062 17.9088Z" fill="white"/>
<path d="M9.49445 1.49902C5.42456 1.49902 2.11478 4.80766 2.11328 8.8744C2.11268 10.268 2.50268 11.6254 3.24122 12.7998L3.41679 13.0788L2.67123 15.8005L5.46379 15.0683L5.73345 15.228C6.86602 15.9002 8.16451 16.2557 9.48878 16.2564H9.49159C13.5583 16.2564 16.8681 12.9475 16.8698 8.88038C16.8705 6.90953 16.1038 5.05622 14.7107 3.66212C13.3176 2.26802 11.4653 1.49985 9.49445 1.49902Z" fill="#0B0703"/>
<path fill-rule="evenodd" clip-rule="evenodd" d="M7.27254 5.16378C7.10628 4.79451 6.93137 4.78703 6.77343 4.78055C6.64407 4.77506 6.4961 4.77539 6.3483 4.77539C6.20033 4.77539 5.96008 4.83093 5.75691 5.05288C5.55357 5.27484 4.98047 5.81137 4.98047 6.9027C4.98047 7.99404 5.77536 9.04847 5.88609 9.1966C5.99699 9.34458 7.42051 11.6556 9.67518 12.5446C11.5488 13.2835 11.93 13.1365 12.3368 13.0996C12.7435 13.0627 13.6491 12.5631 13.8339 12.0452C14.0187 11.5272 14.0187 11.0835 13.9634 10.9907C13.9078 10.8981 13.76 10.8428 13.5381 10.7319C13.3163 10.621 12.2258 10.0843 12.0224 10.0103C11.8191 9.9363 11.6713 9.89939 11.5233 10.1213C11.3755 10.3433 10.9507 10.8428 10.8212 10.9907C10.6919 11.1389 10.5625 11.1573 10.3406 11.0464C10.1188 10.9352 9.40434 10.7013 8.55691 9.94561C7.89752 9.35771 7.45244 8.63165 7.32292 8.40969C7.19357 8.18773 7.30912 8.06769 7.42035 7.95713C7.51994 7.85771 7.64214 7.6981 7.7532 7.56858C7.86377 7.43906 7.90084 7.34662 7.97466 7.19881C8.04865 7.05068 8.01174 6.92116 7.95621 6.81026C7.90084 6.69937 7.46973 5.60238 7.27254 5.16378Z" fill="white"/>
</svg>
