<svg width="21" height="15" viewBox="0 0 21 15" fill="none" xmlns="http://www.w3.org/2000/svg">
<path d="M20.0821 2.2003C19.8521 1.33421 19.1744 0.652111 18.3139 0.420629C16.7542 0 10.5 0 10.5 0C10.5 0 4.24586 0 2.68613 0.420629C1.82565 0.652148 1.14794 1.33421 0.917919 2.2003C0.5 3.77014 0.5 7.04545 0.5 7.04545C0.5 7.04545 0.5 10.3208 0.917919 11.8906C1.14794 12.7567 1.82565 13.4104 2.68613 13.6419C4.24586 14.0625 10.5 14.0625 10.5 14.0625C10.5 14.0625 16.7541 14.0625 18.3139 13.6419C19.1744 13.4104 19.8521 12.7567 20.0821 11.8906C20.5 10.3208 20.5 7.04545 20.5 7.04545C20.5 7.04545 20.5 3.77014 20.0821 2.2003ZM8.45453 10.0192V4.07171L13.6818 7.04552L8.45453 10.0192Z" fill="white"/>
</svg>
